<?xml version="1.0" encoding="utf-8"?>
<!-- Generator: Adobe Illustrator 23.0.2, SVG Export Plug-In . SVG Version: 6.00 Build 0)  -->
<svg version="1.1" xmlns="http://www.w3.org/2000/svg" xmlns:xlink="http://www.w3.org/1999/xlink" x="0px" y="0px"
	 viewBox="0 0 432.2 142.2" style="enable-background:new 0 0 432.2 142.2;" xml:space="preserve">
<style type="text/css">
	.st0{fill:#85754D;}
	.st1{fill:#453124;}
	.st2{fill:#5E4B44;}
	.st3{fill:#605B62;}
	.st4{font-family:'BodoniSvtyTwoSCITCTT-Book';}
	.st5{font-size:48px;}
	.st6{display:none;fill:#605B62;}
	.st7{display:none;}
	.st8{display:inline;fill:#605B62;}
</style>
<g id="Layer_1">
	<title>logo</title>
	<path class="st0" d="M141.6,77.2c0,0-28.3,12.2-46.7-37.9c-10.5-28.6-26.9-28-26.9-28s73.6-5.8,80.6,43.2c0,0,3,13.3-1.8,20.2
		c0,0,14.1,6.9,21,6l0.3,6.4c0,0-28.2-10.8-31.5-15.7L141.6,77.2L141.6,77.2z"/>
	<path class="st1" d="M39,29.7c0,0,26.3-18.3,55.4,29c16.6,27,33.1,23,33.1,23s-73.8,21.1-91-27.4c0,0-5.8-12.9-2.3-21
		c0,0-15.8-4.1-22.6-1.8L10,25.1c0,0,30.9,5.1,35.3,9.5L39,29.7L39,29.7z"/>
	<path class="st2" d="M71.6,104.4c0,0,3.9-19.5,37.2-10.8c19,4.9,24.7-3.9,24.7-3.9s-23.9,41.1-52.4,26.8c0,0-8.1-3.3-10-8.4
		c0,0-8.9,5-10.9,8.9l-3.5-2.2c0,0,16-11,19.9-10.9L71.6,104.4L71.6,104.4z"/>
	<text transform="matrix(1 0 0 1 142.72 125.55)" class="st3 st4 st5">SmartWindow</text>
	<rect y="4.1" class="st6" width="428.4" height="135.3"/>
</g>
<g id="Layer_2" class="st7">
	<rect class="st8" width="428.4" height="150.9"/>
</g>
</svg>
