<svg id="Layer_1" data-name="Layer 1" xmlns="http://www.w3.org/2000/svg" viewBox="0 0 780.54 325.87"><defs><style>.cls-1{fill:#85754d;}.cls-2{fill:#453124;}.cls-3{fill:#5e4b44;}.cls-4{font-size:48px;fill:#605b62;font-family:BodoniSvtyTwoSCITCTT-Book, "Bodoni 72 Smallcaps";}</style></defs><title>logo</title><path class="cls-1" d="M265.13,333.81s-28.27,12.22-46.7-37.94c-10.51-28.6-26.85-28-26.85-28s73.55-5.84,80.55,43.19c0,0,2.95,13.29-1.8,20.21,0,0,14.14,6.91,20.95,6l.31,6.4S263.42,332.91,260.12,328l5,5.87Z" transform="translate(-133.51 -267.64)"/><path class="cls-2" d="M162.52,286.33s26.3-18.28,55.43,29.05c16.6,27,33.15,23,33.15,23s-73.78,21.11-91-27.43c0,0-5.75-12.94-2.33-21,0,0-15.84-4.14-22.59-1.79l-1.64-6.45s30.93,5.13,35.32,9.5l-6.31-4.95Z" transform="translate(-133.51 -267.64)"/><path class="cls-3" d="M195.09,361.07s3.91-19.45,37.23-10.79c19,4.94,24.69-3.93,24.69-3.93s-23.91,41.08-52.44,26.79c0,0-8.12-3.32-10-8.37,0,0-8.85,5-10.86,8.89l-3.5-2.18s16-11,19.86-10.91l-4.94.5Z" transform="translate(-133.51 -267.64)"/><text class="cls-4" transform="translate(132.72 114.55)">SmartWindow</text></svg>